<svg xmlns="http://www.w3.org/2000/svg">
  <symbol id="observability" viewBox="0 0 64 64">
    <g fill="none" stroke="currentColor" stroke-width="2.6" stroke-linecap="round" stroke-linejoin="round">
      <circle cx="32" cy="32" r="22"/>
      <path d="M14 34h9l5-11 7 20 5-12h10"/>
      <circle cx="32" cy="32" r="3.5" fill="currentColor" stroke="none"/>
    </g>
  </symbol>

  <symbol id="automation" viewBox="0 0 64 64">
    <g fill="none" stroke="currentColor" stroke-width="2.6" stroke-linecap="round" stroke-linejoin="round">
      <path d="M18 19h28v26H18z"/>
      <path d="M24 27h16M24 33h10M24 39h13"/>
      <path d="m12 20 4-4 4 4M52 44l-4 4-4-4"/>
      <path d="M16 16c-5 4-7 10-7 16M48 48c5-4 7-10 7-16"/>
    </g>
  </symbol>

  <symbol id="storage" viewBox="0 0 64 64">
    <g fill="none" stroke="currentColor" stroke-width="2.6" stroke-linecap="round" stroke-linejoin="round">
      <ellipse cx="32" cy="16" rx="18" ry="7"/>
      <path d="M14 16v13c0 4 8 7 18 7s18-3 18-7V16"/>
      <path d="M14 29v13c0 4 8 7 18 7s18-3 18-7V29"/>
      <circle cx="42" cy="27" r="1.5" fill="currentColor" stroke="none"/>
      <circle cx="42" cy="40" r="1.5" fill="currentColor" stroke="none"/>
    </g>
  </symbol>

  <symbol id="server" viewBox="0 0 64 64">
    <g fill="none" stroke="currentColor" stroke-width="2.6" stroke-linecap="round" stroke-linejoin="round">
      <rect x="12" y="12" width="40" height="16" rx="4"/>
      <rect x="12" y="36" width="40" height="16" rx="4"/>
      <path d="M20 20h14M20 44h14"/>
      <circle cx="44" cy="20" r="2" fill="currentColor" stroke="none"/>
      <circle cx="44" cy="44" r="2" fill="currentColor" stroke="none"/>
    </g>
  </symbol>

  <symbol id="performance" viewBox="0 0 64 64">
    <g fill="none" stroke="currentColor" stroke-width="2.6" stroke-linecap="round" stroke-linejoin="round">
      <path d="M12 46a22 22 0 1 1 40 0"/>
      <path d="M32 32 44 21"/>
      <circle cx="32" cy="32" r="4"/>
      <path d="M18 42h28"/>
    </g>
  </symbol>

  <symbol id="containers" viewBox="0 0 64 64">
    <g fill="none" stroke="currentColor" stroke-width="2.4" stroke-linecap="round" stroke-linejoin="round">
      <rect x="9" y="12" width="18" height="18" rx="3"/>
      <rect x="37" y="12" width="18" height="18" rx="3"/>
      <rect x="23" y="36" width="18" height="18" rx="3"/>
      <path d="M27 21h10M18 30v6h14M46 30v6H32"/>
    </g>
  </symbol>
</svg>